<svg width="209" height="51" viewBox="0 0 209 51" class="css-1j8o68f"><defs id="SvgjsDefs15740"></defs><g id="SvgjsG15741" featurekey="rootContainer" transform="matrix(1,0,0,1,0,0)" fill="#cdf3f7"><rect width="209" height="51" rx="5"></rect></g><g id="SvgjsG15742" featurekey="nameLeftFeature-0" transform="matrix(2.3285900473407413,0,0,2.3285900473407413,9.53428215708559,-3.9223785551820907)" fill="#0a0a0a"><path d="M1.06 5.800000000000001 c-0.1 0 -0.16 0.06 -0.24 0.06 c-0.28 0 -0.62 -0.18 -0.62 -0.3 l0 0.02 c0 -0.02 0 -0.46 0.5 -0.46 c0 0 0.84 0.04 1 0.04 c0.46 0 2.08 -0.04 2.5 -0.04 c0.16 0 1.48 0.04 1.64 0.04 c0.2 0 0.44 -0.02 0.64 -0.02 c0.36 0 0.54 0.06 0.54 0.38 c0 0.18 -0.12 0.2 -0.18 0.28 c-0.8 0 -0.94 -0.04 -1.22 -0.04 c-0.04 0 -0.36 0.04 -0.36 0.04 l-0.06 0.06 l0 0.22 c0.08 0.1 -0.08 0.36 0.2 0.7 c-0.02 0.04 -0.02 0.06 -0.02 0.1 c0 0.26 0.46 0.42 0.46 1.14 c-0.02 0 -0.02 0.02 -0.02 0.02 c0 0.06 0.18 0.24 0.3 0.78 c0.12 0 -0.08 0.14 0.28 0.58 c-0.02 0.02 -0.02 0.02 -0.02 0.04 c0 0.08 0.2 0.28 0.2 0.46 c0 0.04 0 0.08 -0.02 0.08 c0 0.04 0.32 0.42 0.32 0.88 c0 0.6 0.54 0.96 0.54 1.5 c0.08 0.54 0.38 0.7 0.38 1.04 c0.2 0.04 0.06 0.34 0.28 0.54 c-0.02 0 -0.04 0.02 -0.04 0.04 c0 0.08 0.22 0.28 0.22 0.56 c-0.02 0 -0.04 0 -0.04 0.02 c0 0.08 0.3 0.36 0.3 0.58 c0.12 0.36 0.14 0.42 0.18 0.62 c0.08 -0.02 0.36 0.2 0.66 -1.22 l0 0.02 c0.02 0 0.04 -0.58 0.26 -0.72 c0.08 0 -0.14 -0.16 0.34 -1.1 c0.26 -0.38 0.2 -0.92 0.4 -1.18 c0 0.02 0.1 -0.68 0.28 -0.82 c0 -0.1 0.12 -0.56 0.34 -1.1 c0 -0.08 0.34 -0.72 0.34 -0.88 c0.04 -0.02 0.04 -0.02 0.04 -0.04 s-0.04 -0.06 -0.04 -0.14 c0 -0.1 0.04 -0.22 0.2 -0.46 c0.16 -0.14 0.16 -0.76 0.32 -0.84 c0.1 -0.48 0.18 -0.6 0.2 -0.68 c0.06 0.04 0.04 -0.5 0.2 -0.74 c-0.06 -0.12 -0.18 -0.14 -0.28 -0.14 c-0.2 0 -0.2 0 -0.26 0.04 c-0.14 -0.06 -0.28 -0.06 -0.44 -0.06 l0 -0.02 c-0.28 0 -0.34 0.08 -0.52 0.08 c-0.02 -0.02 -0.04 -0.04 -0.06 -0.04 c-0.04 0 -0.1 0.02 -0.16 0.02 c-0.08 0 -0.18 -0.04 -0.28 -0.22 c0 -0.46 0.04 -0.18 0.38 -0.4 l3.86 0 c0.1 0 0.26 0.04 0.28 0.1 l-0.1 0 c0 0.02 0.04 0.1 0.04 0.1 c0.04 0 0.06 -0.02 0.1 -0.04 c0 0.6 -0.42 0.36 -0.48 0.48 c-0.16 0 -0.56 0.02 -0.62 -0.08 l-0.48 0 s-0.08 0.08 -0.12 0.16 c0 0 -0.36 0.4 -0.36 0.82 c-0.06 -0.02 0 0.3 -0.26 0.68 c0 0 0.02 0.02 0.02 0.04 c0 0.08 -0.2 0.34 -0.2 0.5 c0 0.04 0 0.06 0.02 0.08 c0 0.04 -0.16 0.44 -0.24 0.5 c0.02 0 0.04 0.02 0.04 0.06 c0 0.24 -0.52 1.22 -0.52 1.46 c-0.02 0 -0.08 0.4 -0.18 0.48 c-0.08 0.04 0 0.46 -0.28 0.88 c0 0.24 -0.44 0.7 -0.44 1.32 c-0.02 0 -0.14 0.38 -0.22 0.44 c-0.04 0 -0.08 -0.02 -0.08 -0.02 c0 0.2 0.02 0.16 0.02 0.32 c0 0.04 -0.22 0.4 -0.22 0.76 l0 -0.02 c-0.14 0 -0.84 2.26 -0.82 2.28 l0 0 c0.04 0.06 -0.2 0.3 -0.2 0.58 c0 0.38 -0.24 0.04 -0.24 0.76 c0 0.02 0.02 0.04 0.02 0.06 c0 0.12 -0.22 0.2 -0.22 0.5 c-0.08 1.02 -0.42 0.42 -0.42 1.12 c-0.06 0.24 0.06 0.68 -0.52 1.14 c-0.4 0 -0.6 -0.72 -0.6 -0.78 c-0.06 -0.02 0.04 -0.26 -0.3 -0.78 c0 -0.02 0.02 -0.02 0.02 -0.04 c0 -0.1 -0.2 -0.28 -0.2 -0.52 c0 -0.3 -0.44 -0.52 -0.44 -1.24 c0 -0.22 -0.34 -0.52 -0.34 -0.76 l0 0 c-0.04 0 -0.02 -0.36 -0.28 -0.78 l0.02 0.02 c0 -0.02 -0.24 -0.4 -0.28 -0.76 c0 -0.14 -0.34 -0.32 -0.34 -0.9 c0.02 0 0.04 -0.02 0.04 -0.04 c0 -0.14 -0.36 -0.42 -0.36 -0.86 c0 -0.26 -0.42 -0.56 -0.42 -0.94 c-0.16 -0.32 -0.2 -0.58 -0.28 -0.92 c0.02 0 0.02 0 0.02 -0.02 c0 -0.08 -0.5 -1.28 -0.5 -1.38 l0 -0.08 c0 0.02 -0.24 -0.6 -0.3 -0.62 c-0.1 0 0.06 -0.36 -0.32 -0.84 c0 0 0.02 -0.02 0.02 -0.04 c0 -0.14 -0.3 -0.46 -0.3 -0.66 c0 -0.34 -0.2 -0.6 -0.26 -0.9 c-0.08 0.16 0.02 -0.24 -0.16 -0.46 c-0.1 -0.46 -0.3 -0.34 -0.42 -0.48 l-0.76 0 z M7.8 20.28 l0 0.06 c0.04 0 0.06 0 0.08 -0.06 l-0.08 0 z M7.38 19.9 l-0.02 0.02 l0.04 0 s0 -0.02 -0.02 -0.02 z M8.1 19.74 c-0.08 0 -0.08 0.14 -0.1 0.16 c0.1 -0.02 0.1 0.02 0.1 -0.16 z M7.2 19 c-0.02 0.02 -0.02 0.04 -0.02 0.06 c0.02 0 0.02 -0.02 0.04 -0.04 z M10.26 13.4 l0.06 0.04 l0 -0.14 c-0.04 0.04 -0.06 0.04 -0.06 0.1 z M10.32 12.98 c-0.02 0 -0.04 0.02 -0.04 0.02 c0 0.02 0.02 0.02 0.04 0.02 s0.02 0 0.02 -0.02 c0 0 0 -0.02 -0.02 -0.02 z M10.42 12.74 c-0.1 0 -0.1 0.16 -0.1 0.16 l0.12 -0.12 z M7.14 12.82 c-0.02 0 -0.04 0.02 -0.04 0.04 c0 0 0.02 0.02 0.04 0.02 s0.02 -0.02 0.02 -0.02 c0 -0.02 0 -0.04 -0.02 -0.04 z M4.24 11.24 l0.04 0.06 l0.04 -0.02 c-0.04 -0.04 -0.06 -0.04 -0.08 -0.04 l0 0 z M11.46 9.98 c-0.02 0 -0.04 0.02 -0.04 0.02 c0 0.02 0.02 0.02 0.04 0.02 c0 0 0.02 0 0.02 -0.02 z M3.6 9.66 c-0.02 0 -0.04 0.02 -0.04 0.04 c0 0 0.02 0.02 0.04 0.02 l0 -0.06 z M11.58 8.78 c0 -0.02 -0.02 -0.02 -0.04 -0.02 s-0.02 0 -0.02 0.02 s0 0.04 0.02 0.04 s0.04 -0.02 0.04 -0.04 z M12 8.38 l0 0.02 l0.04 -0.02 l-0.04 0 z M2.76 7.18 c0.02 0 0.06 0.06 0.06 0.1 l0.04 -0.04 c0 -0.08 0 -0.22 -0.1 -0.22 c0 0.02 -0.1 0.08 -0.1 0.16 l0.04 0.04 z M12.38 6.58 l0 0.02 l0.04 0 z M3.14 5.640000000000001 c0 0.06 0 0.08 0.04 0.08 c0.02 0 0.04 -0.02 0.04 -0.02 c0 -0.02 -0.04 -0.06 -0.08 -0.1 l0 0.04 z M0.4 5.52 c0.02 0.02 0.06 0.08 0.1 0.12 l0.04 -0.04 l-0.02 0 s0.02 0 0.02 -0.02 c0 -0.04 -0.02 -0.06 -0.14 -0.06 z M11.18 5.6 c-0.02 0 -0.02 0.02 -0.02 0.02 c0 0.02 0 0.02 0.02 0.02 s0.02 0 0.02 -0.02 c0 0 0 -0.02 -0.02 -0.02 z M10.68 5.5600000000000005 c-0.02 0 -0.04 0.02 -0.04 0.04 s0.02 0.04 0.04 0.04 c0 0 0.02 -0.02 0.02 -0.04 s-0.02 -0.04 -0.02 -0.04 z M11.1 5.5600000000000005 l0 0.04 l0.02 0.02 c0.02 0 0.02 -0.02 0.04 -0.06 l-0.06 0 z M14.4 5.5600000000000005 l-0.02 0.02 c0 0.02 0.02 0.02 0.02 0.02 c0.02 0 0.02 0 0.02 -0.02 c0 0 0 -0.02 -0.02 -0.02 z M13.76 5.5600000000000005 c0 0 -0.02 -0.02 -0.04 -0.02 l-0.02 0.02 c0 0.02 0.02 0.04 0.02 0.04 c0.02 0 0.04 -0.02 0.04 -0.04 z M3.1 5.52 c-0.02 0 -0.04 0 -0.04 0.02 c0 0 0.02 0.02 0.04 0.02 s0.02 -0.02 0.02 -0.02 c0 -0.02 0 -0.02 -0.02 -0.02 z M2.52 5.4399999999999995 c-0.02 0.02 -0.04 0.04 -0.04 0.06 l0.02 0.02 c0.02 0 0.06 -0.02 0.1 -0.04 z M1.44 5.4399999999999995 l0.02 0.04 c0.04 0 0.06 0.02 0.08 -0.04 l-0.08 -0.04 z M2.3 5.4399999999999995 c-0.02 0 -0.02 0.02 -0.02 0.04 s0 0.04 0.02 0.04 s0.02 -0.02 0.02 -0.04 s0 -0.04 -0.02 -0.04 z M4.56 5.4399999999999995 l0.04 0.04 l0 -0.04 l-0.04 0 z M6.2 5.48 c0 -0.02 -0.02 -0.02 -0.04 -0.02 s-0.04 0 -0.04 0.02 s0.02 0.04 0.04 0.04 s0.04 -0.02 0.04 -0.04 z M6.84 5.380000000000001 c-0.02 0.08 0.04 0.12 0.06 0.1 c0 -0.06 0.02 -0.1 -0.06 -0.1 z M12.8 5.32 c-0.1 0 -0.1 0.1 -0.1 0.16 l0.32 0 c-0.08 0 -0.14 -0.12 -0.22 -0.16 z M13.84 5.279999999999999 c0 0.02 -0.02 0.08 -0.02 0.14 c0 0.04 0.02 0.06 0.04 0.06 l0.06 -0.08 l0 0.02 c0 -0.02 -0.04 -0.14 -0.08 -0.14 z M0.98 5.4399999999999995 c0 -0.02 -0.02 -0.02 -0.04 -0.02 c0 0 -0.02 0 -0.02 0.02 s0.02 0.04 0.02 0.04 c0.02 0 0.04 -0.02 0.04 -0.04 z M6.62 5.34 c-0.04 0.04 -0.04 0.06 -0.04 0.1 c0.04 -0.02 0.04 -0.06 0.04 -0.1 z M14.04 5.32 c0 0 0 0.06 0.04 0.06 c0.1 -0.02 0.08 -0.08 0.08 -0.16 c-0.1 0.02 -0.12 0 -0.12 0.1 z M10.48 5.279999999999999 c-0.04 0.04 -0.04 0.08 -0.04 0.08 c0 -0.02 0.04 0 0.04 -0.08 z M14.500000000000002 19.8 c0 -0.38 0.28 -0.42 0.52 -0.42 c0.08 0 0.74 0.06 0.76 0.06 c0.16 0 0.24 -0.08 0.36 -0.08 c0.06 -0.84 0.08 -1.72 0.08 -2.34 c0 -0.04 -0.04 -0.72 -0.04 -0.92 c0 0 0.04 -0.78 0.04 -0.76 c0 -0.08 -0.04 -0.56 -0.04 -0.62 c0 -0.16 0.04 -0.34 0.04 -0.52 c0 -0.04 -0.04 -0.64 -0.04 -0.62 c0 -0.08 0.04 -0.4 0.04 -0.48 c0 -1.14 0.02 -1.46 -0.38 -1.46 c-0.84 0 -0.88 0.02 -1.14 0.02 c-0.3 0 -0.34 -0.04 -0.34 -0.24 c0 -0.32 0.26 -0.36 0.72 -0.36 l0.96 0 c0.04 0 0.1 0.04 0.14 0.04 c0.94 0 0.68 -0.14 1.94 -0.14 c0.62 0 0.38 0.14 0.5 0.46 l0 7.32 l0.04 0.52 c0.02 0.08 0.16 0.16 0.4 0.16 c0.1 0 0.24 -0.04 0.34 -0.04 c0 0.02 0.02 0.02 0.08 0.02 c0.08 0 0.24 -0.02 0.4 -0.02 c0.22 0 0.42 0.02 0.42 0.14 c0 0.42 -0.38 0.48 -0.72 0.48 c-0.64 0 -0.82 -0.12 -0.84 -0.12 c-0.18 0 0.14 0.16 -0.76 0.16 c-0.02 -0.02 -0.4 -0.08 -0.68 -0.08 c-0.12 0 -0.48 0.08 -0.6 0.08 c-0.14 0 -0.18 -0.08 -0.32 -0.08 c-0.06 0.02 -0.3 0.1 -0.42 0.1 c-0.16 0 -0.48 0 -0.48 -0.14 c-0.16 0 -0.02 0.14 -0.26 0.14 c-0.06 0 -0.12 -0.06 -0.2 -0.06 c-0.02 0 -0.12 0.04 -0.16 0.04 c-0.08 0 -0.3 -0.04 -0.36 -0.24 z M15.14 19.72 c0 0.1 0.04 0.22 0.18 0.22 c0 -0.22 -0.1 -0.16 -0.18 -0.22 z M15.080000000000002 19.88 c-0.02 0 -0.02 0.02 -0.02 0.02 c0 0.02 0 0.02 0.02 0.02 s0.02 0 0.02 -0.02 c0 0 0 -0.02 -0.02 -0.02 z M15.72 19.84 c0 0.06 0.02 0.06 0.04 0.08 l0.04 -0.04 s0 -0.04 -0.04 -0.08 z M19.64 19.84 l0 0.04 l0.04 0 l0 -0.04 l-0.04 0 z M14.620000000000001 19.72 c0.02 0.04 0.04 0.08 0.14 0.08 c0.02 0 0.04 -0.02 0.1 -0.06 c0 -0.04 -0.06 -0.1 -0.08 -0.12 c0 0.02 -0.16 0.06 -0.16 0.1 z M19.240000000000002 19.68 c-0.02 0 -0.04 0.02 -0.04 0.04 s0.02 0.02 0.04 0.02 s0.02 0 0.02 -0.02 s0 -0.04 -0.02 -0.04 z M20.18 19.62 l0 0.1 l0.06 0 l0 -0.1 l-0.06 0 z M20.14 19.56 l-0.04 0 c0 0.02 0.02 0.02 0.04 0.02 s0.02 0 0.02 -0.02 l-0.02 0 z M17.98 12.940000000000001 c0 0.02 -0.02 0.02 -0.02 0.04 s0.02 0.02 0.06 0.04 c0.04 -0.02 0.1 -0.08 0.1 -0.1 s-0.02 -0.02 -0.04 -0.02 c-0.04 0 -0.1 0.04 -0.1 0.04 z M16.900000000000002 11.46 l0 0.08 l0.02 0 c0 -0.02 0 -0.06 -0.02 -0.08 z M18.400000000000002 11.44 l0 0.06 l0.06 0.04 z M16.14 11.28 c0 0.12 0 0.12 0.04 0.18 c0.04 0 0.04 -0.04 0.06 -0.08 c-0.02 -0.06 -0.04 -0.1 -0.1 -0.1 z M16.580000000000002 11.3 c0 0.16 0 0.1 0.08 0.14 c0 -0.14 -0.02 -0.14 -0.08 -0.14 z M18.14 11.3 c0 0.02 -0.02 0.02 -0.02 0.04 s0.02 0.02 0.06 0.04 l0.08 -0.1 l-0.02 -0.02 c-0.08 0 -0.12 0 -0.1 0.04 z M18.46 11.3 c-0.02 0 -0.04 0.02 -0.04 0.02 c0 0.02 0.02 0.02 0.04 0.02 s0.02 0 0.02 -0.02 c0 0 0 -0.02 -0.02 -0.02 z M18.02 11.28 c-0.02 0 -0.04 0 -0.04 0.02 s0.02 0.04 0.04 0.04 l0 -0.04 l0 -0.02 z M15.840000000000002 6.539999999999999 c0 -0.12 0.02 -0.26 0.08 -0.54 l0 0.02 c0.02 0 0.1 -0.38 0.22 -0.38 c0.2 0 0.08 -0.46 1 -0.46 c0.9 0 1.68 0.38 1.68 1.5 c0 0.16 -0.04 1.24 -1.38 1.24 c-1.52 0 -1.62 -0.8 -1.62 -1.18 c0 -0.12 0.02 -0.18 0.02 -0.2 z M17.96 7.48 c-0.02 0 -0.04 0.02 -0.04 0.02 c0 0.02 0.02 0.04 0.04 0.04 c0 0 0.02 -0.02 0.02 -0.04 z M15.98 6.779999999999999 l-0.02 0 c0 0.02 0 0.02 0.02 0.02 s0.02 0 0.02 -0.02 l-0.02 0 z M18.34 5.9 c-0.02 0 -0.04 0 -0.04 0.02 l0.04 0 l0.02 0 c0 -0.02 0 -0.02 -0.02 -0.02 z M18.12 5.619999999999999 c0 -0.02 -0.02 -0.02 -0.02 -0.02 c-0.02 0 -0.02 0 -0.02 0.02 s0 0.02 0.02 0.02 c0 0 0.02 0 0.02 -0.02 z M17.720000000000002 5.460000000000001 c-0.02 0 -0.04 0.02 -0.04 0.06 c0 0 0.02 0.02 0.04 0.02 s0.02 -0.02 0.02 -0.02 c0 -0.04 0 -0.06 -0.02 -0.06 z M16.900000000000002 5.34 c0 0.04 0 0.1 0.02 0.12 c0.04 -0.02 0.08 -0.06 0.12 -0.12 l-0.14 0 z M17.66 5.42 c-0.02 0 -0.02 0.02 -0.02 0.04 c0 0 0 0.02 0.02 0.02 l0 -0.06 z M21.220000000000002 20.02 l-0.1 -0.12 l0 -0.34 c0 -0.04 0.14 -0.18 0.16 -0.2 l1.32 0 c0.06 -0.04 0.14 -0.1 0.16 -0.16 l0 -1.14 c0.04 0 0.06 -0.06 0.06 -0.1 s-0.06 -0.3 -0.06 -0.38 l0 -5.44 c0 -0.3 -0.12 -0.34 -0.2 -0.46 l-0.82 0 c-0.08 0.04 -0.14 0.04 -0.18 0.04 c-0.66 0 -0.68 -0.12 -0.68 -0.3 c0 -0.36 0.88 -0.4 1.48 -0.4 c0.44 0 0.46 0.02 0.9 0.02 c1.22 0 1.18 -0.1 1.44 -0.1 c0.2 0 0.48 0 0.48 0.42 c0 0.08 0.08 0.56 0.08 0.62 c0 0 0 0.06 -0.04 0.1 c0 0.3 0.04 0.46 0.14 0.46 c0.12 0 0.28 -0.32 0.36 -0.46 c0 -0.16 0.76 -0.76 0.88 -0.88 c0.16 0 0.64 -0.34 0.96 -0.34 c0.48 0 0.58 0.02 0.8 0.02 s1.2 0.5 1.2 1.1 l0 0.64 c0 0.44 -0.24 0.54 -0.46 0.78 c-0.14 0.04 -0.5 0.38 -0.74 0.38 c-0.92 0 -1.44 -0.74 -1.44 -1.54 c0.12 0.06 -0.16 -0.16 -0.16 -0.24 c-0.44 0 -0.64 0.7 -0.88 0.7 c-0.08 0 -0.2 0.42 -0.28 0.5 c-0.02 0.64 -0.34 0.34 -0.34 1.32 l0 0.92 l0.04 0.12 c0 0.14 -0.04 0.22 -0.04 0.34 c0 0.2 0.08 2.24 0.08 3.12 c0 0.2 0.16 0.18 0.16 0.34 c0.68 0 0.82 -0.04 1 -0.04 c0.66 0 0.74 0.02 0.74 0.4 c-0.02 0.02 0 0.1 -0.06 0.14 l0 -0.02 c-0.04 0 -0.24 0.2 -0.5 0.2 c-0.46 0 0.02 -0.08 -1.16 -0.08 c-0.26 0 -0.96 0.04 -0.96 0.04 l-0.4 0 s-0.2 -0.04 -0.28 -0.04 c-0.1 0 -0.62 0.04 -0.62 0.04 l-1.14 0.02 c-0.14 0 -0.3 0.1 -0.34 0.1 c-0.18 0 -0.36 -0.1 -0.56 -0.1 z M21.18 19.68 c0 0.08 0.1 0.26 0.1 0.28 l0.1 0 c0 -0.06 -0.12 -0.26 -0.2 -0.28 z M21.76 19.86 c0 0.1 0.1 0.06 0.12 0.1 c0.04 0 0.12 -0.04 0.12 -0.04 c-0.06 0 -0.16 -0.06 -0.24 -0.06 z M22.64 19.9 l0 0.02 l0.02 0 z M22.28 19.86 c-0.02 0 -0.04 0.02 -0.04 0.02 c0 0.02 0.02 0.02 0.04 0.02 s0.02 0 0.02 -0.02 c0 0 0 -0.02 -0.02 -0.02 z M26.76 19.84 c0 0.04 0 0.06 0.06 0.06 s0.1 -0.02 0.12 -0.1 c0 -0.02 0 -0.02 -0.02 -0.06 c-0.04 0.12 -0.06 0.1 -0.16 0.1 z M25.840000000000003 19.84 c0.02 0.02 0.06 0.02 0.04 0.04 c0.02 0 0.06 -0.02 0.08 -0.08 l-0.04 -0.06 c-0.06 0.02 -0.02 0.06 -0.08 0.1 z M27.1 19.6 c-0.04 0.02 -0.04 0.04 -0.04 0.08 l0.04 0 l0 -0.08 z M21.8 19.6 l0 0.04 l0.04 0 l0 -0.04 l-0.04 0 z M21.380000000000003 19.56 c0 -0.02 -0.02 -0.02 -0.02 -0.02 c-0.02 0 -0.02 0 -0.02 0.02 l0.04 0 z M28.62 13.559999999999999 c-0.06 0.02 -0.12 0.04 -0.12 0.06 l0.12 -0.02 l0 -0.04 z M29.04 13.14 l0.02 0.1 l0.04 -0.08 l0 -0.02 l-0.06 0 z M21.66 11.64 c0 -0.02 0 -0.02 -0.02 -0.02 s-0.04 0 -0.04 0.02 l0.04 0 l0.02 0 z M21.84 11.52 c-0.04 0.02 -0.06 0.04 -0.06 0.06 l0.02 0.02 l0.04 0 l0 -0.08 z M22 11.52 c0.04 0.04 0.02 0.06 0.04 0.04 l0 -0.04 l-0.04 0 z M22.200000000000003 11.56 c0 -0.02 0 -0.02 -0.02 -0.02 c0 0 -0.02 0 -0.02 0.02 s0.02 0.04 0.02 0.04 c0.02 0 0.02 -0.02 0.02 -0.04 z M21.34 11.28 l0.1 0.12 c0.02 0 0.1 -0.02 0.16 -0.04 c0.12 0 0.26 0.04 0.3 0.04 s0.14 -0.02 0.14 -0.08 c-0.08 -0.06 -0.28 -0.08 -0.66 -0.08 z M21.060000000000002 11.32 l0.04 0.04 c0.02 0 0.02 0 0.04 -0.04 l-0.02 -0.02 z M24.94 11.14 c-0.04 0.02 -0.08 0 -0.08 0.1 l0 0.04 c0.08 0 0.08 -0.12 0.08 -0.14 z M33.06 20.1 c-0.3 0 -0.6 -0.16 -0.94 -0.28 l-0.44 -0.44 c-0.02 -0.1 -0.22 -0.42 -0.22 -0.68 c0 -2.74 0.1 -4.96 0.1 -6.68 c0 -0.26 -0.02 -0.4 -0.28 -0.4 c-0.06 0 -0.14 0 -0.22 0.02 c-0.04 0 -0.28 -0.02 -0.32 -0.02 c-0.12 0 -0.26 0.06 -0.5 0.06 c-0.06 -0.16 -0.36 0.04 -0.36 -0.32 s0.28 -0.34 0.44 -0.4 c0 0 0.06 0 0.14 0.04 l0.56 0 c0.36 -0.08 0.34 0 0.5 -0.16 c0.06 -2.02 -0.06 -2.18 0.58 -2.18 c0.02 0 0.58 0.02 0.72 0.02 c0.28 0 0.18 -0.12 1.02 -0.12 l-0.02 0 c0.02 0 0.2 0.06 0.22 0.1 c0 1.72 -0.04 1.68 -0.04 2.18 l0.16 0.16 l0.9 0 c0.04 -0.06 0.54 -0.06 0.7 -0.06 l-0.02 0 s0.42 0.08 0.42 0.28 c0 0.26 -0.04 0.42 -0.68 0.42 c-0.34 0 -0.86 -0.02 -1.32 -0.02 c-0.14 0 -0.2 1.2 -0.2 1.7 c0 0.54 0.04 0.8 0.04 1.22 c0 1.14 -0.06 2.66 -0.06 3.08 c0 0.36 0.02 0.7 0.1 0.76 l0 -0.02 c0.04 0 -0.04 0.76 0.76 0.76 c0.44 0 0.46 0 0.78 -0.2 c-0.02 0 0.32 -0.32 0.32 -0.4 l0 -0.02 s0.1 -0.64 0.54 -0.64 c0.26 0 0.36 0.28 0.36 0.46 c0 0.08 -0.22 0.22 -0.22 0.38 c0 0.44 -0.82 0.82 -0.9 1.04 c-0.06 -0.04 -0.18 0.16 -0.26 0.16 c-0.46 0 -0.54 0.2 -1.04 0.2 l-0.02 0 c-0.42 0 -0.8 0.08 -0.8 0.08 l0 0 c-0.16 0 -0.36 -0.04 -0.5 -0.08 z M32.84 19.86 c0 -0.02 -0.02 -0.02 -0.02 -0.02 l0 0.06 s0.02 -0.02 0.02 -0.04 z M35.160000000000004 19.8 c-0.02 0 -0.02 0.02 -0.02 0.04 c0 0 0 0.02 0.02 0.02 l0 -0.06 z M32.74 19.76 c-0.02 0 -0.04 0.02 -0.04 0.04 c0 0 0.02 0.02 0.04 0.02 s0.02 -0.02 0.02 -0.02 c0 -0.02 0 -0.04 -0.02 -0.04 z M32.400000000000006 19.6 c-0.02 0 -0.04 0.02 -0.04 0.04 c0 0 0.02 0.02 0.04 0.02 l0.02 -0.02 c0 -0.02 -0.02 -0.04 -0.02 -0.04 z M32.08 19.54 c-0.02 0 -0.04 0.02 -0.04 0.02 l0.06 0 z M35.84 19.16 l0 0.12 l0.04 -0.04 c0 -0.04 -0.04 -0.08 -0.04 -0.08 z M31.740000000000002 19.12 l-0.02 0.02 c0 0.02 0.02 0.02 0.02 0.02 c0.02 0 0.02 0 0.02 -0.02 c0 0 0 -0.02 -0.02 -0.02 z M31.8 18.84 c0 0.04 0 0.04 0.02 0.04 l0.02 0 l0 0 z M36.52 18.54 c-0.02 0 -0.04 0.02 -0.04 0.02 c0 0.02 0.02 0.02 0.04 0.02 c0 0 0.02 0 0.02 -0.02 z M31.62 18.14 l0 0.04 l0.06 0 z M36.38 18.06 c-0.02 0 -0.02 0.02 -0.02 0.02 c0 0.02 0 0.02 0.02 0.02 s0.02 0 0.02 -0.02 c0 0 0 -0.02 -0.02 -0.02 z M36.54 18.06 l-0.02 0.04 l0.08 0 z M31.62 15.98 l0 -0.04 l0 0.04 z M30.080000000000002 11.48 c0 0.02 -0.02 0.02 -0.02 0.04 s0.02 0.02 0.06 0.04 l0 -0.08 l-0.04 0 z M30.000000000000004 11.32 l0 0 l-0.02 0 c0 0 -0.02 0.02 -0.02 0.08 c0 0.02 0.02 0.06 0.02 0.06 c0.04 0 0.04 -0.04 0.04 -0.06 c0 -0.04 0 -0.06 -0.02 -0.08 z M35.22 11.36 l0 0.06 c0.04 0 0.04 -0.02 0.04 -0.06 l-0.04 0 z M30.32 11.26 l0 0.06 c0.02 -0.02 0.04 -0.04 0.04 -0.06 l-0.04 0 z M30.12 11.16 c-0.04 0 -0.12 0.08 -0.12 0.1 l0.2 0 c-0.02 -0.04 -0.06 -0.08 -0.08 -0.1 z M33.260000000000005 9.36 l0 0.1 c0.1 0 0.1 -0.02 0.12 -0.1 l-0.12 0 z M31.740000000000002 9.32 c0 0 -0.02 0.02 -0.02 0.04 s0.02 0.04 0.02 0.04 c0.02 0 0.02 -0.02 0.02 -0.04 s0 -0.04 -0.02 -0.04 z M31.740000000000002 9.16 l0 0.12 c0.04 -0.02 0.04 -0.06 0.04 -0.12 l-0.04 0 z M32.24 9.08 c0 0.02 -0.02 0.04 0.04 0.04 c0 -0.04 -0.04 -0.04 -0.04 -0.04 z M31.740000000000002 8.94 l0 0.1 l0.1 0 c0 -0.06 -0.06 -0.08 -0.1 -0.1 z M33.260000000000005 8.92 l0 0.08 c0.04 -0.02 0.04 -0.06 0.04 -0.08 l-0.04 0 z M33.72 8.76 c0 0 0 0.12 0.08 0.16 l0.04 -0.04 c0 -0.02 -0.02 -0.16 -0.1 -0.16 z M38.94 17.68 c0 -0.16 -0.02 -0.98 -0.02 -1.14 c0 -0.02 0.02 -0.44 0.02 -0.64 c0 -0.4 -0.02 -2.3 -0.02 -2.42 c0 -0.24 0.02 -0.88 0.02 -1.02 c0 -0.26 0.02 -0.86 -0.18 -0.86 c-0.28 0 -0.3 0.02 -0.42 0.02 l-0.84 0 c-0.02 0 -0.04 0.02 -0.06 0.02 c-0.1 0 -0.14 -0.18 -0.2 -0.24 c0 -0.28 0.06 -0.42 0.42 -0.42 c0.28 0 0.64 0.02 1 0.02 l2.5 0 c0.08 0.02 0.2 0.1 0.24 0.2 l-0.04 4.2 l0.04 0.04 c0 0.76 -0.06 0.8 -0.06 1.08 c0 0.08 0.02 0.14 0.06 0.16 c0 0 0 0.1 -0.04 0.22 c0 2.2 0.34 2.46 1.32 2.46 c0.04 0 0.22 -0.04 0.26 -0.04 c0.28 -0.14 0.28 -0.12 0.34 -0.16 c0 0.02 0 0.02 0.02 0.02 c0.1 0 0.7 -0.32 0.96 -0.84 c-0.02 0 -0.02 0 -0.02 -0.02 c0 -0.2 0.46 -0.76 0.46 -1.26 c0.02 -0.02 0 -0.18 0.14 -0.6 l0 -1.84 c0 -0.7 -0.06 -1.36 -0.06 -1.82 c0 0 0 -0.08 0.02 -0.18 l0 -0.68 c0 -0.48 -0.54 -0.2 -0.54 -0.42 c-0.02 0.04 -0.04 0.1 -0.08 0.1 c-0.34 0 -0.3 -0.02 -0.44 -0.02 c-0.2 0 -0.24 0.04 -0.38 0.04 c-0.22 0 -0.4 -0.2 -0.4 -0.36 c0 -0.26 0.38 -0.3 0.66 -0.3 c0.48 0 0.62 -0.02 0.72 0.06 l1.98 0 c0.02 -0.02 0.06 -0.04 0.08 -0.04 c0.1 0 0.38 0.08 0.68 0.08 c0.12 0 0.2 0.04 0.2 0.76 c0 0.32 -0.06 4.5 -0.08 4.62 l0 -0.02 s0.04 2.2 0.04 2.36 l0 -0.02 c0 0 0.02 0.6 0.5 0.6 c0.16 0 0.38 -0.04 0.58 -0.04 c0.28 0 0.54 0.08 0.54 0.42 c0 0.14 -0.16 0.22 -0.32 0.22 c-0.3 0 -0.68 -0.06 -1 -0.06 c-0.06 0 -0.6 0 -0.74 0.06 l-1.24 0 c0 0.04 -0.08 0.08 -0.08 0.08 c-0.32 0 -0.6 -0.02 -0.6 -0.34 c0 -0.02 0 -0.04 0.02 -0.08 l0 -0.94 c-0.04 -0.06 -0.12 -0.22 -0.2 -0.22 c-0.04 0 -0.06 0.02 -0.08 0.06 c0 0.04 -0.46 0.72 -0.46 0.7 c-0.02 0.16 -0.62 0.52 -0.76 0.56 l0.02 0 c0 0.02 -0.74 0.12 -0.8 0.26 l-1.52 0 c-1.72 0 -2.16 -1.84 -2.16 -2.38 z M45.08 19.96 l-0.02 -0.04 z M45.04 19.86 c-0.02 0 -0.04 0.02 -0.04 0.04 s0.02 0.02 0.04 0.02 s0.02 0 0.02 -0.02 s0 -0.04 -0.02 -0.04 z M47.480000000000004 19.82 l0.04 -0.02 z M48.5 19.8 c-0.06 0 -0.02 0 -0.04 0.02 l0.08 0 z M47.44 19.76 c-0.02 0 -0.04 0.02 -0.04 0.04 c0 0 0.02 0.02 0.04 0.02 s0.02 -0.02 0.02 -0.02 c0 -0.02 0 -0.04 -0.02 -0.04 z M47.96 19.76 c-0.02 0 -0.02 0.02 -0.02 0.04 c0 0 0 0.02 0.02 0.02 l0.02 -0.02 c0 -0.02 -0.02 -0.04 -0.02 -0.04 z M43.42 19.56 l-0.06 0.08 l0.06 0 l0 -0.08 z M39.12 17.740000000000002 c-0.02 0 -0.04 0.02 -0.04 0.02 c0 0.02 0.02 0.04 0.04 0.04 l0 -0.06 z M39.12 17.54 c-0.02 0 -0.04 0.04 -0.04 0.08 s0.02 0.08 0.02 0.08 c0.02 0 0.02 -0.14 0.02 -0.16 z M39.2 17.08 c-0.02 0 -0.04 0.02 -0.04 0.04 s0.02 0.04 0.04 0.04 s0.02 -0.02 0.02 -0.04 s0 -0.04 -0.02 -0.04 z M39.28 17.04 c-0.02 0 -0.04 0 -0.04 0.02 c0 0 0.02 0.02 0.04 0.02 l0.02 -0.02 c0 -0.02 -0.02 -0.02 -0.02 -0.02 z M45.24 12.5 c0 0 0 0.04 0.02 0.04 l0 0 c0 -0.02 0 -0.04 -0.02 -0.04 z M44.94 12.04 c-0.02 0 -0.04 0.02 -0.04 0.04 c0 0 0.02 0.02 0.04 0.02 l0.02 -0.02 c0 -0.02 -0.02 -0.04 -0.02 -0.04 z M37.6 11.52 c0 0.06 0.04 0.04 0.08 0.04 l0 -0.08 c0 0.02 -0.02 -0.02 -0.08 0.04 z M43.64 11.48 c-0.02 0 -0.02 0.02 -0.02 0.04 s0 0.04 0.02 0.04 s0.02 -0.02 0.02 -0.04 s0 -0.04 -0.02 -0.04 z M37.44 11.44 l0 0.02 l0.04 0 z M46.96 11.36 c0 0.02 -0.02 0.02 -0.02 0.04 s0.02 0.02 0.06 0.04 l0 0.02 z M45.4 11.36 c-0.02 0 -0.04 0.02 -0.04 0.04 s0.02 0.04 0.04 0.04 c0 0 0.02 -0.02 0.02 -0.04 s-0.02 -0.04 -0.02 -0.04 z M38.82 11.28 c-0.02 0 -0.04 0.02 -0.04 0.04 s0.02 0.04 0.04 0.04 c0 0 0.02 -0.02 0.02 -0.04 s-0.02 -0.04 -0.02 -0.04 z M45.32 11.28 l0 0.04 l0.04 0 c0 -0.04 0 -0.04 -0.04 -0.04 z M43.28 11.2 c0 0.06 0.02 0.06 0.04 0.08 c0 0 0.04 0 0.08 -0.04 c0 0 0 -0.04 -0.04 -0.08 z M44.019999999999996 11.28 l-0.02 -0.04 z M37.6 11.2 l0.02 0.04 l0.04 0 z M44.34 11.24 l0 0.04 l0 -0.06 l0 0.02 z M52.6 19.76 c-0.02 0 0 -0.02 0.04 -0.12 c-0.12 -0.08 -0.14 -0.26 -0.16 -0.26 c-0.12 0 -0.16 0.38 -0.14 0.42 c-0.1 0 -0.44 -0.18 -0.44 -0.22 c0 -0.02 0.02 0.06 -0.06 0.06 s-0.3 -0.12 -0.92 -0.74 c-0.1 -0.12 -0.24 -0.24 -0.24 -0.28 c0.02 -0.06 -0.36 -0.28 -0.36 -0.5 c-0.24 -0.12 -0.32 -0.62 -0.54 -0.8 l0.02 0 s-0.42 -0.72 -0.42 -1.52 c0 -0.08 0.04 -0.54 0.04 -0.64 c0 -0.9 0.56 -1.34 0.56 -1.68 c0 -0.22 0.56 -0.58 0.78 -1.14 c0 -0.08 0.82 -0.74 0.86 -0.78 c0.3 0 0.46 -0.46 0.88 -0.46 c0.16 0.04 0.88 -0.32 1.28 -0.32 l0.94 0 c0.14 0 0.34 0.1 0.58 0.1 c-0.02 0 -0.02 -0.02 -0.02 -0.02 c0.04 0 0.3 0.16 0.66 0.22 c0 -0.02 0.02 -0.02 0.04 -0.02 c0.12 0 0.36 0.24 0.46 0.26 l0 0 s0.12 0.1 0.82 0.62 l-0.02 0.02 s0.18 -0.02 0.96 0.94 c0.18 0.38 0.38 0.62 0.52 0.98 c0.04 0.04 0.34 0.62 0.34 1.16 c0 1.5 -0.5 1.82 -0.54 2.54 c0.02 0.14 -0.28 0.22 -0.32 0.52 c0 0.1 -0.32 0.26 -0.74 0.86 l0 0 c-0.08 0 -0.76 0.68 -0.9 0.68 c0 -0.02 -0.02 -0.04 -0.04 -0.04 c-0.08 0 -0.34 0.36 -0.74 0.36 l-0.08 -0.04 c-0.16 0 -0.12 0.2 -0.36 0.2 c-0.26 0 -0.22 -0.06 -0.36 -0.06 c0 0.2 -0.18 0.04 -0.26 0.2 l-1.02 0 c-0.34 -0.12 -1.12 0 -1.1 -0.5 z M54.52 20.16 l0.04 0.02 l0.04 -0.02 l-0.04 -0.04 z M55.46000000000001 20 c-0.04 0 -0.06 0.02 -0.1 0.02 l0.02 0.02 c0.02 0 0.04 -0.02 0.12 -0.04 l-0.04 0 z M56.160000000000004 19.68 c-0.02 0 -0.06 0.04 -0.08 0.06 l0.08 0 l0 -0.06 z M53.56 19.56 c0.2 0 0.3 0.12 0.66 0.14 c0 -0.06 0.02 -0.02 0.42 -0.1 c0.04 0 0.22 0.04 0.24 0.04 c0.16 0 0.04 -0.12 0.38 -0.12 c0.46 -0.32 0.38 -0.14 0.82 -1.02 l0 0.02 c0.02 0 0.18 -1.6 0.18 -1.86 c0 -0.14 -0.1 -0.22 -0.1 -0.34 l0.04 -0.12 c-0.02 -0.08 -0.06 -0.2 -0.06 -0.26 c0 -0.36 0.16 -0.28 0.16 -0.7 c0 -1.62 -0.12 -2.12 -0.28 -2.9 c0 -0.84 -1.58 -0.94 -1.7 -1.02 c-0.68 0.08 -1.12 0.02 -1.56 0.48 c0 0 -0.32 0.24 -0.32 0.62 c0 0.64 -0.24 0.68 -0.24 1.2 s-0.02 1.38 -0.02 1.52 c0 3.04 0.12 2.84 0.32 3.48 c0.02 0 0.2 0.94 1.04 0.94 l0.02 0 z M55.400000000000006 19.64 c-0.02 0 -0.04 0.02 -0.04 0.04 s0.02 0.04 0.04 0.04 c0 0 0.02 -0.02 0.02 -0.04 s-0.02 -0.04 -0.02 -0.04 z M55.900000000000006 19.56 c0 0 -0.02 0.02 -0.02 0.04 s0.02 0.04 0.02 0.04 c0.02 0 0.02 -0.02 0.02 -0.04 s0 -0.04 -0.02 -0.04 z M49.96000000000001 17.36 c0 -0.02 -0.02 -0.02 -0.02 -0.02 c-0.02 0 -0.02 0 -0.02 0.02 s0 0.04 0.02 0.04 c0 0 0.02 -0.02 0.02 -0.04 z M49.86000000000001 15.42 c-0.02 0 -0.04 0.02 -0.04 0.04 c0 0 0.02 0.02 0.04 0.02 s0.02 -0.02 0.02 -0.02 c0 -0.02 0 -0.04 -0.02 -0.04 z M49.620000000000005 15.26 c-0.02 0 -0.02 0.02 -0.02 0.04 c0 0 0 0.02 0.02 0.02 s0.02 -0.02 0.02 -0.02 c0 -0.02 0 -0.04 -0.02 -0.04 z M56.32000000000001 11.6 c-0.08 0 -0.08 0.04 -0.12 0.04 c0.06 0 0.12 0.02 0.12 -0.04 z M55.540000000000006 11.24 c-0.02 0.04 0.02 0.04 0.08 0.06 c0.02 0 0.06 0 0.08 -0.02 c-0.06 -0.02 -0.12 -0.04 -0.14 -0.04 l-0.02 0 z M52.800000000000004 11.2 l0.02 -0.02 z M53.580000000000005 10.98 c0.04 -0.02 -0.12 0.02 -0.16 0.04 l0 0.06 c0.1 0 0.16 0.02 0.16 -0.1 z M53.74 11.02 l0 0.06 c0.02 0 0.02 -0.02 0.02 -0.02 c0 -0.02 0 -0.04 -0.02 -0.04 z"></path></g><g id="SvgjsG15743" featurekey="nameRightFeature-0" transform="matrix(2.3285900473407413,0,0,2.3285900473407413,146.9482527402408,-3.9223785551820907)" fill="#0a0a0a"><path d="M8.24 15.379999999999999 l0 -8.4 c0 -0.1 0.08 -0.18 0.18 -0.18 l2.28 0 c0.1 0 0.18 0.08 0.18 0.18 l0 9.04 c0 2.88 -1.58 4.18 -4.56 4.18 c-2.82 0 -4.58 -1.12 -4.58 -4.18 l0 -9.04 c0 -0.1 0.08 -0.18 0.18 -0.18 l2.3 0 c0.1 0 0.18 0.08 0.18 0.18 l0 8.4 c0 1.74 0.98 2.12 1.8 2.12 l0.24 0 c1.24 0 1.8 -0.84 1.8 -2.12 z M2.98 8.08 l0 7.78 c0 1.8 1.22 3.1 3.12 3.1 l0.5 0 c1.9 0 3.14 -1.36 3.14 -3.1 l0 -7.78 c0 -0.18 -0.24 -0.2 -0.24 0 l0 7.78 c0 1.64 -1.18 2.84 -2.9 2.84 l-0.5 0 c-1.68 0 -2.88 -1.08 -2.88 -2.84 l0 -7.78 c0 -0.18 -0.24 -0.18 -0.24 0 z M18.98 11.9 c1.52 0.72 3.5 1.86 3.5 3.92 c0 0.6 -0.1 1.76 -0.76 2.74 c-0.74 1.1 -1.9 1.64 -3.5 1.64 c-1.7 0 -3.68 -0.82 -4.3 -2.68 c-0.02 -0.06 0 -0.12 0.06 -0.16 l1.84 -1.58 c0.08 -0.06 0.2 -0.06 0.26 0.04 c0.04 0.1 0.12 0.26 0.22 0.46 c0.3 0.62 1.02 1.24 1.82 1.24 c0.62 0 1.46 -0.34 1.46 -1.3 c0 -0.92 -1.26 -1.44 -2.04 -1.74 c-0.9 -0.36 -1.82 -0.82 -2.6 -1.5 c-0.82 -0.76 -1.22 -1.6 -1.22 -2.6 c0 -2.5 2.3 -3.76 4.48 -3.76 c1.72 0 3 0.9 3.84 2.68 c0.04 0.08 0 0.18 -0.06 0.22 l-1.78 1.24 c-0.08 0.04 -0.12 0.04 -0.2 -0.06 c-0.68 -0.98 -1.28 -1.44 -2.08 -1.44 c-0.42 0 -1.4 0.16 -1.4 0.9 c0 0.9 1.66 1.36 2.46 1.74 z M15.34 17.42 c0.5 1 1.88 1.58 3 1.58 c1.46 0 2.64 -1 2.8 -2.52 c0.2 -1.86 -1.26 -2.66 -2.7 -3.38 l-0.64 -0.28 c-1.48 -0.66 -2.56 -1.16 -2.56 -2.54 c0 -1.52 1.4 -2.22 2.78 -2.22 c1.26 0 1.92 0.74 2.26 1.2 c0.12 0.16 0.32 0.02 0.2 -0.14 c-0.34 -0.42 -1.06 -1.3 -2.46 -1.3 c-1.58 0 -3.02 0.78 -3.02 2.46 c0 1.5 1.2 2.08 2.72 2.78 l0.62 0.3 c1.98 0.94 2.7 1.82 2.54 3.1 c-0.3 2.04 -1.86 2.3 -2.54 2.3 c-1.5 0 -2.5 -0.9 -2.8 -1.46 c-0.1 -0.1 -0.24 0 -0.2 0.12 z"></path></g></svg>