<svg viewBox="0 0 390 91" preserveAspectRatio="xMidYMid meet" class="css-1af7stb" id="dfhcbghg"><defs id="SvgjsDefs12466"></defs><g id="SvgjsG12467" featurekey="rootContainer" transform="matrix(1,0,0,1,0,0)" fill="#cdf3f7"><rect xmlns="http://www.w3.org/2000/svg" width="390" height="91" rx="10" ry="10"></rect></g><g id="SvgjsG12468" featurekey="nameFeature-0" transform="matrix(1.6898193936273,0,0,1.6898193936273,19.754528741555774,3.122623903279763)" fill="#0a0a0a"><path d="M28.2 10.64 q0.44 0.6 0.16 1.32 l-10.96 27.08 q-0.16 0.4 -0.52 0.64 t-0.8 0.24 l-3.52 0 q-0.44 0 -0.8 -0.24 t-0.52 -0.64 l-10.96 -27.08 q-0.32 -0.68 0.12 -1.32 t1.16 -0.64 l13.36 0 q0.56 0 0.98 0.42 t0.42 1.02 l0 2.92 q0 0.6 -0.42 1.02 t-0.98 0.42 l-6.72 0 l6.12 15.4 l8.04 -20.32 q0.16 -0.4 0.52 -0.64 t0.8 -0.24 l3.36 0 q0.36 0 0.68 0.18 t0.48 0.46 z M34.524 21.88 q0.6 0 1 0.42 t0.4 1.02 l0 14.96 q0 0.56 -0.4 0.98 t-1 0.42 l-3.04 0 q-0.56 0 -0.98 -0.42 t-0.42 -0.98 l0 -14.96 q0 -0.6 0.42 -1.02 t0.98 -0.42 l3.04 0 z M34.524 10 q0.6 0 1 0.42 t0.4 0.98 l0 7.4 q0 0.6 -0.4 1.02 t-1 0.42 l-3.04 0 q-0.56 0 -0.98 -0.42 t-0.42 -1.02 l0 -7.4 q0 -0.56 0.42 -0.98 t0.98 -0.42 l3.04 0 z M59.608000000000004 28.2 l6.04 9.24 q0.44 0.72 0.04 1.44 q-0.16 0.32 -0.5 0.52 t-0.7 0.2 l-3.64 0 q-0.36 0 -0.68 -0.18 t-0.48 -0.46 l-6.08 -9.64 l-7.12 0 l0 8.88 q0 0.56 -0.42 0.98 t-0.98 0.42 l-3.04 0 q-0.56 0 -0.98 -0.42 t-0.42 -0.98 l0 -13.16 q0 -0.56 0.42 -0.98 t0.98 -0.42 l12.32 0 q3.52 0 4.68 -2 q0.4 -0.64 0.4 -1.84 q0 -1.88 -1.24 -2.96 q-1.28 -1.16 -3.68 -1.16 l-12.48 0 q-0.56 0 -0.98 -0.42 t-0.42 -0.98 l0 -2.88 q0 -0.56 0.42 -0.98 t0.98 -0.42 l12.84 0 q4.68 0 7.48 2.64 q2.92 2.64 2.92 7.16 q0 2.92 -1.28 4.98 t-3.72 3.14 z M71.572 10 q0.6 0 1.02 0.42 t0.42 1.02 l0 2.92 q0 0.6 -0.42 1.02 t-1.02 0.42 l-4.12 0 q-0.56 0 -0.98 -0.42 t-0.42 -1.02 l0 -2.92 q0 -0.6 0.42 -1.02 t0.98 -0.42 l4.12 0 z M89.452 10 q0.56 0 0.98 0.42 t0.42 1.02 l0 2.92 q0 0.6 -0.42 1.02 t-0.98 0.42 l-8.04 0 l0 22.72 q0 0.56 -0.42 0.98 t-0.98 0.42 l-3.08 0 q-0.6 0 -1.02 -0.42 t-0.42 -0.98 l0 -27.08 q0 -0.6 0.42 -1.02 t1.02 -0.42 l12.52 0 z M103.21600000000001 34.12 q0.48 0.16 0.76 0.54 t0.28 0.86 l0 3.08 q0 0.64 -0.52 1.08 q-0.4 0.32 -0.88 0.32 q-0.2 0 -0.28 -0.04 q-3.72 -0.72 -6.4 -3.44 q-3.6 -3.68 -3.6 -9.68 l0 -15.4 q0 -0.6 0.42 -1.02 t0.98 -0.42 l3.08 0 q0.6 0 1.02 0.42 t0.42 1.02 l0 15.48 q0 3.8 2.16 5.8 q1.12 1.04 2.56 1.4 z M117.016 10 q0.6 0 1.02 0.42 t0.42 1.02 l0 15.4 q0 6 -3.6 9.68 q-2.68 2.72 -6.4 3.44 q-0.08 0.04 -0.28 0.04 q-0.48 0 -0.88 -0.32 q-0.52 -0.4 -0.52 -1.12 l0 -3.08 q0 -0.44 0.28 -0.82 t0.76 -0.54 q1.52 -0.44 2.56 -1.4 q2.16 -1.92 2.16 -5.8 l0 -15.48 q0 -0.6 0.42 -1.02 t1.02 -0.42 l3.04 0 z M134.46 10.32 q0.48 0.4 0.48 1.08 l0 3 q0 0.52 -0.3 0.9 t-0.82 0.5 q-2.56 0.52 -4.36 2.44 q-2.44 2.56 -2.44 6.66 t2.44 6.7 q1.8 1.88 4.36 2.4 q0.52 0.12 0.82 0.5 t0.3 0.9 l0 3 q0 0.64 -0.48 1.08 q-0.44 0.32 -0.92 0.32 l-0.24 0 q-4.64 -0.76 -7.96 -4.2 q-4.16 -4.28 -4.16 -10.66 t4.16 -10.74 q3.24 -3.36 7.96 -4.16 q0.64 -0.12 1.16 0.28 z M147.02 14.2 q4.16 4.36 4.16 10.74 t-4.16 10.66 q-3.32 3.44 -7.96 4.2 l-0.24 0 q-0.48 0 -0.92 -0.32 q-0.48 -0.44 -0.48 -1.08 l0 -3 q0 -0.52 0.3 -0.9 t0.82 -0.5 q2.56 -0.52 4.36 -2.4 q2.44 -2.6 2.44 -6.7 t-2.44 -6.66 q-1.8 -1.92 -4.36 -2.44 q-0.52 -0.12 -0.82 -0.5 t-0.3 -0.9 l0 -3 q0 -0.68 0.5 -1.08 t1.14 -0.28 q4.72 0.8 7.96 4.16 z M164.544 34.12 q0.48 0.16 0.76 0.54 t0.28 0.86 l0 3.08 q0 0.64 -0.52 1.08 q-0.4 0.32 -0.88 0.32 q-0.2 0 -0.28 -0.04 q-3.72 -0.72 -6.4 -3.44 q-3.6 -3.68 -3.6 -9.68 l0 -15.4 q0 -0.6 0.42 -1.02 t0.98 -0.42 l3.08 0 q0.6 0 1.02 0.42 t0.42 1.02 l0 15.48 q0 3.8 2.16 5.8 q1.12 1.04 2.56 1.4 z M178.344 10 q0.6 0 1.02 0.42 t0.42 1.02 l0 15.4 q0 6 -3.6 9.68 q-2.68 2.72 -6.4 3.44 q-0.08 0.04 -0.28 0.04 q-0.48 0 -0.88 -0.32 q-0.52 -0.4 -0.52 -1.12 l0 -3.08 q0 -0.44 0.28 -0.82 t0.76 -0.54 q1.52 -0.44 2.56 -1.4 q2.16 -1.92 2.16 -5.8 l0 -15.48 q0 -0.6 0.42 -1.02 t1.02 -0.42 l3.04 0 z M203.74800000000002 24.84 q1.72 1.08 2.62 2.64 t0.9 3.48 q0 4.52 -3.44 6.92 q-2.32 1.68 -6.28 2.12 l-0.16 0 q-0.56 0 -0.92 -0.36 q-0.48 -0.44 -0.48 -1.04 l0 -2.88 q0 -0.52 0.36 -0.92 t0.88 -0.48 q1.88 -0.2 2.92 -0.88 q0.8 -0.48 1.08 -1.24 q0.16 -0.44 0.16 -1.12 q0 -0.44 -0.16 -0.76 t-0.56 -0.6 q-1.16 -0.8 -3 -1.36 l-0.64 -0.2 q-2 -0.56 -3.68 -0.92 q-0.36 -0.08 -1.16 -0.28 l-0.44 -0.12 q-1.44 -0.36 -3.04 -1 q-2.36 -1 -3.88 -2.52 q-1.76 -1.76 -1.76 -4.64 q0 -3.96 3.04 -6.44 q2.08 -1.76 5.84 -2.24 q0.64 -0.08 1.1 0.36 t0.46 1.04 l0 2.88 q0 0.52 -0.32 0.92 t-0.82 0.46 t-1.02 0.22 q-1.16 0.44 -1.64 0.86 t-0.68 0.86 q-0.2 0.68 -0.2 1.28 q0 0.32 0.36 0.68 q0.56 0.56 1.64 1 q0.48 0.2 1.68 0.6 l5 1.24 l0.24 0.08 q1.88 0.52 2.72 0.8 q1.88 0.64 3.28 1.56 z M197.068 15.8 q-0.48 -0.12 -0.78 -0.5 t-0.3 -0.9 l0 -2.92 q0 -0.64 0.52 -1.08 q0.2 -0.2 0.52 -0.26 t0.6 -0.02 q3.52 0.56 5.72 2.4 q3 2.48 3.2 6.32 q0.04 0.56 -0.38 1.02 t-1.02 0.46 l-3.12 0 q-0.52 0 -0.92 -0.36 t-0.44 -0.88 q-0.16 -1.04 -0.68 -1.72 q-0.84 -1 -2.6 -1.52 q-0.12 0 -0.16 -0.04 l-0.16 0 z M192.388 34.16 q0.48 0.08 0.8 0.48 t0.32 0.88 l0 2.96 q0 0.64 -0.48 1.08 q-0.4 0.32 -0.92 0.32 l-0.2 0 q-3.72 -0.56 -6.12 -2.44 q-3.12 -2.48 -3.52 -6.92 q-0.08 -0.64 0.36 -1.1 t1.04 -0.46 l3.16 0 q0.56 0 0.96 0.38 t0.44 0.94 q0.12 2 1.96 3.08 q0.84 0.48 2.2 0.8 z"></path></g></svg>